<svg xmlns="http://www.w3.org/2000/svg" viewBox="0 0 50.54 50.54"><defs><style>.cls-1{fill:#1d3325;}.cls-2{opacity:0.2;}.cls-3,.cls-4,.cls-5{fill-rule:evenodd;}.cls-4,.cls-5{fill:#fff;}.cls-5{stroke:#1d3325;stroke-miterlimit:10;stroke-width:0.15px;}</style></defs><g id="Calque_2" data-name="Calque 2"><g id="Calque_7" data-name="Calque 7"><circle class="cls-1" cx="25.27" cy="25.27" r="25.27"/><g class="cls-2"><path class="cls-3" d="M35,15.56c-4.94-1.12-10.33,2.8-13,7.58-.22.4-.47.84-.68,1.3a1,1,0,0,0,0,.15.37.37,0,0,0,.36.39.36.36,0,0,0,.25-.11.52.52,0,0,0,.07-.12c.18-.26.34-.52.49-.74,2.66-3.81,7.13-7.11,11.44-6.43,4.07.63,4.1,4.24,2.34,7.84a27.27,27.27,0,0,1-3.3,5.3,2.34,2.34,0,0,1-.3.37c-.71-1.26-1.12-7.45-1.64-8.9-.62-1.76-1.77-1.41-2.47.06-1,2.15-2.54,8.87-2.89,11.57a.1.1,0,0,0,0,.07.21.21,0,0,0,.2.22A.21.21,0,0,0,26,34c.54-1.55,2.6-8.34,3.62-10.54.4,2.58.27,7.56,1.56,9.37,1.05,1.46,2.31.75,3.32-.35A23.23,23.23,0,0,0,38.7,25.7C40.4,21.15,39.47,16.57,35,15.56Z"/></g><path class="cls-4" d="M34.59,15.56c-4.94-1.12-10.33,2.8-13,7.58-.22.4-.47.84-.68,1.3a.89.89,0,0,0,0,.15.37.37,0,0,0,.35.39.36.36,0,0,0,.25-.11.52.52,0,0,0,.07-.12c.18-.26.34-.52.49-.74,2.67-3.81,7.13-7.11,11.44-6.43,4.07.63,4.1,4.24,2.35,7.84a28.27,28.27,0,0,1-3.3,5.3,2.83,2.83,0,0,1-.31.37c-.71-1.26-1.12-7.45-1.64-8.9-.62-1.76-1.76-1.41-2.47.06-1,2.15-2.54,8.87-2.89,11.57a.17.17,0,0,0,0,.07.2.2,0,0,0,.19.22.2.2,0,0,0,.19-.12c.54-1.55,2.61-8.34,3.62-10.54.4,2.58.27,7.56,1.56,9.37,1.05,1.46,2.32.75,3.32-.35a23.47,23.47,0,0,0,4.23-6.77C40,21.15,39.08,16.57,34.59,15.56Z"/><g class="cls-2"><path class="cls-3" d="M27.3,21.42a13.62,13.62,0,0,1-1.53,1h0a.17.17,0,0,1-.1,0,.3.3,0,0,1-.3-.31.29.29,0,0,1,.06-.19s0,0,.05,0a.2.2,0,0,1,.08-.08,22.46,22.46,0,0,0,2.79-3.22c.27-.41,1.86-3.2.81-3.51-2-.57-6.45,3.33-7.8,4.6a78.22,78.22,0,0,0-6.8,7.55A.5.5,0,0,0,15,28c2.1-.31,5.22-1.07,6.19-1.22,1.42-.23,3.81-.53,4.1,1.79.5,3.91-5.5,7.47-8.46,8.38a1.81,1.81,0,0,1-.35.09l-.13.05h-.06a.46.46,0,0,1-.4-.22.48.48,0,0,1,0-.45.16.16,0,0,0,0-.06l.23-.21c1.23-1.24,4.16-4,5.82-6.11a.49.49,0,0,0-.48-.8c-2.32.56-5.64,1.75-7.64,1.87-2.58.17-4.11-1.31-3.07-3.9,1.36-3.39,8.61-9.79,11.71-11.85,1.92-1.27,6.67-3.94,8.37-1.25C32.41,16.58,29.15,20,27.3,21.42Z"/></g><path class="cls-5" d="M27,21.42a13.42,13.42,0,0,1-1.52,1h0a.15.15,0,0,1-.1,0,.3.3,0,0,1-.3-.31.25.25,0,0,1,.07-.19s0,0,0,0,.06-.06.08-.08a21.85,21.85,0,0,0,2.79-3.22c.27-.41,1.86-3.2.81-3.51-2-.57-6.45,3.33-7.8,4.6a78.22,78.22,0,0,0-6.8,7.55.5.5,0,0,0,.47.79c2.1-.31,5.21-1.07,6.18-1.22,1.43-.23,3.81-.53,4.1,1.79.5,3.91-5.5,7.47-8.46,8.38a1.64,1.64,0,0,1-.35.09l-.13.05H16a.44.44,0,0,1-.39-.22.45.45,0,0,1,0-.45.16.16,0,0,0,0-.06l.23-.21c1.23-1.24,4.16-4,5.82-6.11a.49.49,0,0,0-.48-.8c-2.32.56-5.64,1.75-7.63,1.87-2.59.17-4.11-1.31-3.07-3.9,1.35-3.39,8.6-9.79,11.7-11.85,1.92-1.27,6.68-3.94,8.37-1.25C32.14,16.58,28.87,20,27,21.42Z"/></g></g></svg>