<svg xmlns="http://www.w3.org/2000/svg" viewBox="0 0 232.58 50.54"><defs><style>.cls-1,.cls-5,.cls-6{fill:#fff;}.cls-2{fill:#1d3325;}.cls-3{opacity:0.2;}.cls-4,.cls-5,.cls-6{fill-rule:evenodd;}.cls-6{stroke:#1d3325;stroke-miterlimit:10;stroke-width:0.15px;}</style></defs><g id="Calque_2" data-name="Calque 2"><g id="Calque_6" data-name="Calque 6"><path class="cls-1" d="M71.72,36.3a20,20,0,0,1-4.84-.58,17.49,17.49,0,0,1-2.27-.7,1.63,1.63,0,0,1-.9-2.17l.74-1.69a1.64,1.64,0,0,1,2.16-.82,14.6,14.6,0,0,0,1.73.58,14.15,14.15,0,0,0,3.6.48A5.5,5.5,0,0,0,74.33,31a1.08,1.08,0,0,0,.67-1,.9.9,0,0,0-.63-.85,6.79,6.79,0,0,0-1.66-.41l-2.25-.32c-.81-.12-1.63-.29-2.46-.49a7.77,7.77,0,0,1-2.27-.94,4.72,4.72,0,0,1-1.64-1.71,5.46,5.46,0,0,1-.61-2.73,5.33,5.33,0,0,1,1.1-3.33A7.31,7.31,0,0,1,67.8,17,14.12,14.12,0,0,1,73,16.14a22,22,0,0,1,4.16.41,15.9,15.9,0,0,1,2,.52,1.64,1.64,0,0,1,.94,2.2l-.73,1.65a1.63,1.63,0,0,1-2.11.82,9.89,9.89,0,0,0-1.44-.44A13.5,13.5,0,0,0,73,21a5.41,5.41,0,0,0-2.43.39,1.14,1.14,0,0,0-.7,1,1,1,0,0,0,.61.88,5.89,5.89,0,0,0,1.64.47l2.25.32a19.82,19.82,0,0,1,2.46.49,8.07,8.07,0,0,1,2.27.95,4.66,4.66,0,0,1,1.64,1.69,5.4,5.4,0,0,1,.61,2.72,5.16,5.16,0,0,1-1.1,3.24A7.38,7.38,0,0,1,77,35.43,14.15,14.15,0,0,1,71.72,36.3Z"/><path class="cls-1" d="M93.11,36.3A12,12,0,0,1,87.43,35a9.88,9.88,0,0,1-3.91-3.58,9.68,9.68,0,0,1-1.42-5.24A9.59,9.59,0,0,1,83.52,21a9.78,9.78,0,0,1,3.91-3.54,12.13,12.13,0,0,1,5.68-1.28,12.28,12.28,0,0,1,5.71,1.28A9.65,9.65,0,0,1,102.73,21a9.75,9.75,0,0,1,1.4,5.22,9.85,9.85,0,0,1-1.4,5.24A9.74,9.74,0,0,1,98.82,35,12.17,12.17,0,0,1,93.11,36.3Zm0-5.44a4.06,4.06,0,0,0,2.11-.54,3.79,3.79,0,0,0,1.46-1.6,5.54,5.54,0,0,0,.54-2.54,5.31,5.31,0,0,0-.54-2.5,3.89,3.89,0,0,0-1.46-1.57,4.06,4.06,0,0,0-2.11-.54,4,4,0,0,0-2.06.54,3.94,3.94,0,0,0-1.48,1.57,5.19,5.19,0,0,0-.56,2.5,5.41,5.41,0,0,0,.56,2.54,3.84,3.84,0,0,0,1.48,1.6A4,4,0,0,0,93.11,30.86Z"/><path class="cls-1" d="M107.3,34.28V18.16a1.7,1.7,0,0,1,1.69-1.7h3.13a1.69,1.69,0,0,1,1.69,1.7v4l-.5-.84a1.69,1.69,0,0,1,0-1.7,6.13,6.13,0,0,1,2.37-2.37,8.55,8.55,0,0,1,2.7-.94,1.71,1.71,0,0,1,2,1.67v4.32l-.81-.09h-.74a5,5,0,0,0-3.39,1.13A4.69,4.69,0,0,0,114.14,27v7.27a1.7,1.7,0,0,1-1.7,1.69H109A1.69,1.69,0,0,1,107.3,34.28Z"/><path class="cls-1" d="M132.79,36.3A12,12,0,0,1,127.1,35a9.88,9.88,0,0,1-3.91-3.58,9.68,9.68,0,0,1-1.42-5.24A9.59,9.59,0,0,1,123.19,21a9.78,9.78,0,0,1,3.91-3.54,12.14,12.14,0,0,1,5.69-1.28,12.27,12.27,0,0,1,5.7,1.28A9.65,9.65,0,0,1,142.4,21a9.75,9.75,0,0,1,1.4,5.22,9.85,9.85,0,0,1-1.4,5.24A9.74,9.74,0,0,1,138.49,35,12.15,12.15,0,0,1,132.79,36.3Zm0-5.44a4.05,4.05,0,0,0,2.1-.54,3.79,3.79,0,0,0,1.46-1.6,5.54,5.54,0,0,0,.54-2.54,5.31,5.31,0,0,0-.54-2.5,3.89,3.89,0,0,0-1.46-1.57,4.05,4.05,0,0,0-2.1-.54,4,4,0,0,0-2.07.54,3.94,3.94,0,0,0-1.48,1.57,5.19,5.19,0,0,0-.56,2.5,5.41,5.41,0,0,0,.56,2.54,3.84,3.84,0,0,0,1.48,1.6A4,4,0,0,0,132.79,30.86Z"/><path class="cls-1" d="M166.15,16.14a9,9,0,0,1,4.11.92,6.73,6.73,0,0,1,2.9,2.82,10.18,10.18,0,0,1,1.06,4.93v9.65A1.52,1.52,0,0,1,172.7,36h-3.8a1.52,1.52,0,0,1-1.52-1.51V25.93a4.47,4.47,0,0,0-.85-3,3,3,0,0,0-2.36-1,4.15,4.15,0,0,0-2,.49,3.32,3.32,0,0,0-1.4,1.49,5.87,5.87,0,0,0-.5,2.63v7.92A1.52,1.52,0,0,1,158.77,36H155a1.52,1.52,0,0,1-1.51-1.51V18A1.52,1.52,0,0,1,155,16.46h3.48A1.52,1.52,0,0,1,160,18v4l-.61-.79a1.53,1.53,0,0,1,0-1.82,7.25,7.25,0,0,1,2.45-2.2A9,9,0,0,1,166.15,16.14Z"/><path class="cls-1" d="M177,21.37l1.61-5.59a.78.78,0,0,1,1.5,0h0a.79.79,0,0,1-1,.94,4,4,0,0,1-1.71-.92A3.73,3.73,0,0,1,176.24,13,3.83,3.83,0,0,1,177.41,10a4.1,4.1,0,0,1,2.94-1.1,4,4,0,0,1,2.91,1.1A3.85,3.85,0,0,1,184.41,13a7.23,7.23,0,0,1-.07,1,7.91,7.91,0,0,1-.3,1.22q-.24.7-.78,1.89l-2.1,4.79a.78.78,0,0,1-.71.47h-2.74A.78.78,0,0,1,177,21.37Z"/><path class="cls-1" d="M187.62,34.39V10.84a1.58,1.58,0,0,1,1.58-1.58h3.68a1.58,1.58,0,0,1,1.58,1.58v8.94l-.36,6.35v.1l0,6.4v1.76A1.58,1.58,0,0,1,192.55,36H189.2A1.58,1.58,0,0,1,187.62,34.39Zm12.27,1.91a8.16,8.16,0,0,1-4.37-1.08,6.56,6.56,0,0,1-2.61-3.31,16,16,0,0,1-.86-5.73,15,15,0,0,1,.91-5.65,6.75,6.75,0,0,1,2.69-3.31,8,8,0,0,1,4.24-1.08,9.81,9.81,0,0,1,4.85,1.22,9,9,0,0,1,3.45,3.48,10.66,10.66,0,0,1,1.28,5.34,10.73,10.73,0,0,1-1.28,5.38,9.14,9.14,0,0,1-3.45,3.5A9.72,9.72,0,0,1,199.89,36.3Zm-1.44-5.44a4,4,0,0,0,2.07-.54,3.84,3.84,0,0,0,1.48-1.6,5.41,5.41,0,0,0,.56-2.54,5.19,5.19,0,0,0-.56-2.5,3.94,3.94,0,0,0-1.48-1.57,4,4,0,0,0-2.07-.54,4,4,0,0,0-2.07.54,4,4,0,0,0-1.47,1.57,5.08,5.08,0,0,0-.56,2.5,5.29,5.29,0,0,0,.56,2.54,3.88,3.88,0,0,0,1.47,1.6A4,4,0,0,0,198.45,30.86Z"/><path class="cls-1" d="M222.86,36.3a13.07,13.07,0,0,1-6-1.32,9.78,9.78,0,0,1-4-3.6,9.68,9.68,0,0,1-1.42-5.2A9.77,9.77,0,0,1,212.8,21a9.54,9.54,0,0,1,3.83-3.56,12.46,12.46,0,0,1,10.77-.11,9.09,9.09,0,0,1,3.78,3.44,10.29,10.29,0,0,1,1.4,5.5c0,.24,0,.52,0,.83s0,.6-.07.87H218.83a1.8,1.8,0,0,1-1.8-1.8h0a1.79,1.79,0,0,1,1.8-1.8h10l-.55.21A1.81,1.81,0,0,1,226,23.45c-.06-.14-.12-.27-.19-.4a3.81,3.81,0,0,0-1.44-1.51,4.53,4.53,0,0,0-4.29,0,3.69,3.69,0,0,0-1.42,1.53,5.12,5.12,0,0,0-.5,2.32v1a5,5,0,0,0,.59,2.49,4,4,0,0,0,1.71,1.6,5.94,5.94,0,0,0,2.67.56,6.46,6.46,0,0,0,2.46-.42,6.68,6.68,0,0,0,.93-.46,1.77,1.77,0,0,1,2.19.31l1.21,1.26a1.81,1.81,0,0,1-.28,2.74,10,10,0,0,1-1.87,1A13.23,13.23,0,0,1,222.86,36.3Z"/></g><g id="Calque_7" data-name="Calque 7"><circle class="cls-2" cx="25.27" cy="25.27" r="25.27"/><g class="cls-3"><path class="cls-4" d="M35,15.56c-4.94-1.12-10.33,2.8-13,7.58-.22.4-.47.84-.68,1.3a1,1,0,0,0,0,.15.37.37,0,0,0,.36.39.36.36,0,0,0,.25-.11.52.52,0,0,0,.07-.12c.18-.26.34-.52.49-.74,2.66-3.81,7.13-7.11,11.44-6.43,4.07.63,4.1,4.24,2.34,7.84a27.27,27.27,0,0,1-3.3,5.3,2.34,2.34,0,0,1-.3.37c-.71-1.26-1.12-7.45-1.64-8.9-.62-1.76-1.77-1.41-2.47.06-1,2.15-2.54,8.87-2.89,11.57a.1.1,0,0,0,0,.07.21.21,0,0,0,.2.22A.21.21,0,0,0,26,34c.54-1.55,2.6-8.34,3.62-10.54.4,2.58.27,7.56,1.56,9.37,1.05,1.46,2.31.75,3.32-.35A23.23,23.23,0,0,0,38.7,25.7C40.4,21.15,39.47,16.57,35,15.56Z"/></g><path class="cls-5" d="M34.59,15.56c-4.94-1.12-10.33,2.8-13,7.58-.22.4-.47.84-.68,1.3a.89.89,0,0,0,0,.15.37.37,0,0,0,.35.39.36.36,0,0,0,.25-.11.52.52,0,0,0,.07-.12c.18-.26.34-.52.49-.74,2.67-3.81,7.13-7.11,11.44-6.43,4.07.63,4.1,4.24,2.35,7.84a28.27,28.27,0,0,1-3.3,5.3,2.83,2.83,0,0,1-.31.37c-.71-1.26-1.12-7.45-1.64-8.9-.62-1.76-1.76-1.41-2.47.06-1,2.15-2.54,8.87-2.89,11.57a.17.17,0,0,0,0,.07.2.2,0,0,0,.19.22.2.2,0,0,0,.19-.12c.54-1.55,2.61-8.34,3.62-10.54.4,2.58.27,7.56,1.56,9.37,1.05,1.46,2.32.75,3.32-.35a23.47,23.47,0,0,0,4.23-6.77C40,21.15,39.08,16.57,34.59,15.56Z"/><g class="cls-3"><path class="cls-4" d="M27.3,21.42a13.62,13.62,0,0,1-1.53,1h0a.17.17,0,0,1-.1,0,.3.3,0,0,1-.3-.31.29.29,0,0,1,.06-.19s0,0,.05,0a.2.2,0,0,1,.08-.08,22.46,22.46,0,0,0,2.79-3.22c.27-.41,1.86-3.2.81-3.51-2-.57-6.45,3.33-7.8,4.6a78.22,78.22,0,0,0-6.8,7.55A.5.5,0,0,0,15,28c2.1-.31,5.22-1.07,6.19-1.22,1.42-.23,3.81-.53,4.1,1.79.5,3.91-5.5,7.47-8.46,8.38a1.81,1.81,0,0,1-.35.09l-.13.05h-.06a.46.46,0,0,1-.4-.22.48.48,0,0,1,0-.45.16.16,0,0,0,0-.06l.23-.21c1.23-1.24,4.16-4,5.82-6.11a.49.49,0,0,0-.48-.8c-2.32.56-5.64,1.75-7.64,1.87-2.58.17-4.11-1.31-3.07-3.9,1.36-3.39,8.61-9.79,11.71-11.85,1.92-1.27,6.67-3.94,8.37-1.25C32.41,16.58,29.15,20,27.3,21.42Z"/></g><path class="cls-6" d="M27,21.42a13.42,13.42,0,0,1-1.52,1h0a.15.15,0,0,1-.1,0,.3.3,0,0,1-.3-.31.25.25,0,0,1,.07-.19s0,0,0,0,.06-.06.08-.08a21.85,21.85,0,0,0,2.79-3.22c.27-.41,1.86-3.2.81-3.51-2-.57-6.45,3.33-7.8,4.6a78.22,78.22,0,0,0-6.8,7.55.5.5,0,0,0,.47.79c2.1-.31,5.21-1.07,6.18-1.22,1.43-.23,3.81-.53,4.1,1.79.5,3.91-5.5,7.47-8.46,8.38a1.64,1.64,0,0,1-.35.09l-.13.05H16a.44.44,0,0,1-.39-.22.45.45,0,0,1,0-.45.16.16,0,0,0,0-.06l.23-.21c1.23-1.24,4.16-4,5.82-6.11a.49.49,0,0,0-.48-.8c-2.32.56-5.64,1.75-7.63,1.87-2.59.17-4.11-1.31-3.07-3.9,1.35-3.39,8.6-9.79,11.7-11.85,1.92-1.27,6.68-3.94,8.37-1.25C32.14,16.58,28.87,20,27,21.42Z"/></g></g></svg>